<svg id="Layer_1" viewBox="0 0 64 64" xmlns="http://www.w3.org/2000/svg"><g><g><path d="m60.7 12.4v36.3h-57.4v-36.3c0-2.3 1.8-4.1 4.1-4.1h49.2c2.2 0 4.1 1.9 4.1 4.1z" fill="#c7d9f9"></path></g><g><path d="m60.7 45.7c-.6 0-1-.4-1-1v-32.3c0-1.7-1.4-3.1-3.1-3.1h-49.2c-1.7 0-3.1 1.4-3.1 3.1v32.3c0 .6-.4 1-1 1s-1-.4-1-1v-32.3c0-2.9 2.2-5.1 5.1-5.1h49.2c2.9 0 5.1 2.2 5.1 5.1v32.3c0 .6-.4 1-1 1z" fill="#2a3c65"></path></g><g><path d="m7.4 12.4h49.2v32.2h-49.2z" fill="#02beff" style="fill: rgb(255, 247, 0);"></path></g><g><g><path d="m46 12.4-21.5 32.2h-17.1v-3.5l19.2-28.7z" fill="#27d1ff" style="fill: rgb(255, 247, 0);"></path></g><g><path d="m56.6 12.4v3.6l-19.2 28.6h-9.4l21.5-32.2z" fill="#27d1ff" style="fill: rgb(255, 247, 0);"></path></g></g><g><path d="m56.6 45.6h-49.2c-.6 0-1-.4-1-1v-32.2c0-.6.4-1 1-1h49.2c.6 0 1 .4 1 1v32.2c0 .6-.4 1-1 1zm-48.2-2h47.2v-30.2h-47.2z" fill="#2a3c65"></path></g><g><path d="m60.9 48.7c1.5 0 2.5 1.6 1.8 2.9-1.3 2.4-3.8 4-6.7 4h-48.1c-2.9 0-5.4-1.6-6.7-4-.7-1.3.3-2.9 1.8-2.9z" fill="#c7d9f9"></path><path d="m56 56.6h-48.1c-3.2 0-6.1-1.7-7.6-4.5-.5-.9-.5-2 .1-2.9s1.5-1.5 2.6-1.5h57.9c1.1 0 2 .6 2.6 1.5.5.9.6 2 .1 2.9-1.5 2.8-4.4 4.5-7.6 4.5zm-53-6.9c-.4 0-.7.2-.9.5-.1.1-.3.5 0 .9 1.2 2.1 3.4 3.5 5.8 3.5h48.1c2.4 0 4.7-1.3 5.8-3.5.2-.4 0-.8 0-.9-.2-.3-.5-.5-.9-.5z" fill="#2a3c65"></path></g><g><path d="m33.8 53.2h-3.6c-.6 0-1-.4-1-1s.4-1 1-1h3.6c.6 0 1 .4 1 1s-.4 1-1 1z" fill="#2a3c65"></path></g><g><path d="m18.1 37.5c-1.7 0-3-1.3-3-3v-3.9c0-.6-.4-1-1-1s-1-.4-1-1 .4-1 1-1 1-.4 1-1v-3.9c0-1.7 1.3-3 3-3 .6 0 1 .4 1 1s-.4 1-1 1-1 .4-1 1v3.9c0 .8-.3 1.5-.8 2 .5.5.8 1.2.8 2v3.9c0 .6.4 1 1 1s1 .4 1 1-.4 1-1 1z" fill="#2a3c65"></path></g><g><path d="m45.9 37.5c-.6 0-1-.4-1-1s.4-1 1-1 1-.4 1-1v-3.9c0-.8.3-1.5.8-2-.5-.5-.8-1.2-.8-2v-3.9c0-.6-.4-1-1-1s-1-.4-1-1 .4-1 1-1c1.7 0 3 1.3 3 3v3.9c0 .6.4 1 1 1s1 .4 1 1-.4 1-1 1-1 .4-1 1v3.9c0 1.7-1.3 3-3 3z" fill="#2a3c65"></path></g><g><path d="m29.8 35.4c-.1 0-.2 0-.4-.1-.5-.2-.8-.8-.6-1.3l4.5-11.7c.2-.5.8-.8 1.3-.6s.8.8.6 1.3l-4.5 11.7c-.1.5-.5.7-.9.7z" fill="#2a3c65"></path></g><g><path d="m35.8 33.1c-.3 0-.7-.2-.9-.5-.3-.5-.1-1.1.4-1.4l4.9-2.7-4.9-2.7c-.5-.3-.7-.9-.4-1.4s.9-.7 1.4-.4l6.4 3.6c.3.2.5.5.5.9s-.2.7-.5.9l-6.4 3.6c-.2.1-.3.1-.5.1z" fill="#2a3c65"></path></g><g><path d="m28.1 33.1c-.2 0-.3 0-.5-.1l-6.3-3.6c-.3-.2-.5-.5-.5-.9s.2-.7.5-.9l6.3-3.6c.5-.3 1.1-.1 1.4.4s.1 1.1-.4 1.4l-4.8 2.7 4.8 2.7c.5.3.6.9.4 1.4-.2.3-.6.5-.9.5z" fill="#2a3c65"></path></g></g></svg>