<?xml version="1.0" encoding="utf-8"?>
<svg xmlns="http://www.w3.org/2000/svg" xmlns:xlink="http://www.w3.org/1999/xlink">

    <!-- Skills -->

    <symbol id="i-react" viewBox="0 0 24 24">
        <path d="M12,10.11C13.03,10.11 13.87,10.95 13.87,12C13.87,13 13.03,13.85 12,13.85C10.97,13.85 10.13,13 10.13,12C10.13,10.95 10.97,10.11 12,10.11M7.37,20C8,20.38 9.38,19.8 10.97,18.3C10.45,17.71 9.94,17.07 9.46,16.4C8.64,16.32 7.83,16.2 7.06,16.04C6.55,18.18 6.74,19.65 7.37,20M8.08,14.26L7.79,13.75C7.68,14.04 7.57,14.33 7.5,14.61C7.77,14.67 8.07,14.72 8.38,14.77C8.28,14.6 8.18,14.43 8.08,14.26M14.62,13.5L15.43,12L14.62,10.5C14.32,9.97 14,9.5 13.71,9.03C13.17,9 12.6,9 12,9C11.4,9 10.83,9 10.29,9.03C10,9.5 9.68,9.97 9.38,10.5L8.57,12L9.38,13.5C9.68,14.03 10,14.5 10.29,14.97C10.83,15 11.4,15 12,15C12.6,15 13.17,15 13.71,14.97C14,14.5 14.32,14.03 14.62,13.5M12,6.78C11.81,7 11.61,7.23 11.41,7.5C11.61,7.5 11.8,7.5 12,7.5C12.2,7.5 12.39,7.5 12.59,7.5C12.39,7.23 12.19,7 12,6.78M12,17.22C12.19,17 12.39,16.77 12.59,16.5C12.39,16.5 12.2,16.5 12,16.5C11.8,16.5 11.61,16.5 11.41,16.5C11.61,16.77 11.81,17 12,17.22M16.62,4C16,3.62 14.62,4.2 13.03,5.7C13.55,6.29 14.06,6.93 14.54,7.6C15.36,7.68 16.17,7.8 16.94,7.96C17.45,5.82 17.26,4.35 16.62,4M15.92,9.74L16.21,10.25C16.32,9.96 16.43,9.67 16.5,9.39C16.23,9.33 15.93,9.28 15.62,9.23C15.72,9.4 15.82,9.57 15.92,9.74M17.37,2.69C18.84,3.53 19,5.74 18.38,8.32C20.92,9.07 22.75,10.31 22.75,12C22.75,13.69 20.92,14.93 18.38,15.68C19,18.26 18.84,20.47 17.37,21.31C15.91,22.15 13.92,21.19 12,19.36C10.08,21.19 8.09,22.15 6.62,21.31C5.16,20.47 5,18.26 5.62,15.68C3.08,14.93 1.25,13.69 1.25,12C1.25,10.31 3.08,9.07 5.62,8.32C5,5.74 5.16,3.53 6.62,2.69C8.09,1.85 10.08,2.81 12,4.64C13.92,2.81 15.91,1.85 17.37,2.69M17.08,12C17.42,12.75 17.72,13.5 17.97,14.26C20.07,13.63 21.25,12.73 21.25,12C21.25,11.27 20.07,10.37 17.97,9.74C17.72,10.5 17.42,11.25 17.08,12M6.92,12C6.58,11.25 6.28,10.5 6.03,9.74C3.93,10.37 2.75,11.27 2.75,12C2.75,12.73 3.93,13.63 6.03,14.26C6.28,13.5 6.58,12.75 6.92,12M15.92,14.26C15.82,14.43 15.72,14.6 15.62,14.77C15.93,14.72 16.23,14.67 16.5,14.61C16.43,14.33 16.32,14.04 16.21,13.75L15.92,14.26M13.03,18.3C14.62,19.8 16,20.38 16.62,20C17.26,19.65 17.45,18.18 16.94,16.04C16.17,16.2 15.36,16.32 14.54,16.4C14.06,17.07 13.55,17.71 13.03,18.3M8.08,9.74C8.18,9.57 8.28,9.4 8.38,9.23C8.07,9.28 7.77,9.33 7.5,9.39C7.57,9.67 7.68,9.96 7.79,10.25L8.08,9.74M10.97,5.7C9.38,4.2 8,3.62 7.37,4C6.74,4.35 6.55,5.82 7.06,7.96C7.83,7.8 8.64,7.68 9.46,7.6C9.94,6.93 10.45,6.29 10.97,5.7Z" />
    </symbol>
    <symbol id="i-material-ui" viewBox="0 0 24 24">
        <path d="M8,16.61V15.37L14,11.91V7.23L9,10.12L4,7.23V13L3,13.58L2,13V5L3.07,4.38L9,7.81L12.93,5.54L14.93,4.38L16,5V13.06L10.92,16L14.97,18.33L20,15.43V11L21,10.42L22,11V16.58L14.97,20.64L8,16.61M22,9.75L21,10.33L20,9.75V8.58L21,8L22,8.58V9.75Z" />
    </symbol>
    <symbol id="i-ant-design" viewBox="0 0 1024 1024">
        <path d="M716.3 313.8c19-18.9 19-49.7 0-68.6l-69.9-69.9.1.1c-18.5-18.5-50.3-50.3-95.3-95.2-21.2-20.7-55.5-20.5-76.5.5L80.9 474.2a53.84 53.84 0 0 0 0 76.4L474.6 944a54.14 54.14 0 0 0 76.5 0l165.1-165c19-18.9 19-49.7 0-68.6a48.7 48.7 0 0 0-68.7 0l-125 125.2c-5.2 5.2-13.3 5.2-18.5 0L189.5 521.4c-5.2-5.2-5.2-13.3 0-18.5l314.4-314.2c.4-.4.9-.7 1.3-1.1 5.2-4.1 12.4-3.7 17.2 1.1l125.2 125.1c19 19 49.8 19 68.7 0zM408.6 514.4a106.3 106.2 0 1 0 212.6 0 106.3 106.2 0 1 0-212.6 0zm536.2-38.6L821.9 353.5c-19-18.9-49.8-18.9-68.7.1a48.4 48.4 0 0 0 0 68.6l83 82.9c5.2 5.2 5.2 13.3 0 18.5l-81.8 81.7a48.4 48.4 0 0 0 0 68.6 48.7 48.7 0 0 0 68.7 0l121.8-121.7a53.93 53.93 0 0 0-.1-76.4z" />
    </symbol>
    <symbol id="i-next" viewBox="0 0 32 32">
        <path d="M23.749 30.005c-0.119 0.063-0.109 0.083 0.005 0.025 0.037-0.015 0.068-0.036 0.095-0.061 0-0.021 0-0.021-0.1 0.036zM23.989 29.875c-0.057 0.047-0.057 0.047 0.011 0.016 0.036-0.021 0.068-0.041 0.068-0.047 0-0.027-0.016-0.021-0.079 0.031zM24.145 29.781c-0.057 0.047-0.057 0.047 0.011 0.016 0.037-0.021 0.068-0.043 0.068-0.048 0-0.025-0.016-0.020-0.079 0.032zM24.303 29.688c-0.057 0.047-0.057 0.047 0.009 0.015 0.037-0.020 0.068-0.041 0.068-0.047 0-0.025-0.016-0.020-0.077 0.032zM24.516 29.547c-0.109 0.073-0.147 0.12-0.047 0.068 0.067-0.041 0.181-0.131 0.161-0.131-0.043 0.016-0.079 0.043-0.115 0.063zM14.953 0.011c-0.073 0.005-0.292 0.025-0.484 0.041-4.548 0.412-8.803 2.86-11.5 6.631-1.491 2.067-2.459 4.468-2.824 6.989-0.129 0.88-0.145 1.14-0.145 2.333 0 1.192 0.016 1.448 0.145 2.328 0.871 6.011 5.147 11.057 10.943 12.927 1.043 0.333 2.136 0.563 3.381 0.704 0.484 0.052 2.577 0.052 3.061 0 2.152-0.24 3.969-0.771 5.767-1.688 0.276-0.14 0.328-0.177 0.291-0.208-0.88-1.161-1.744-2.323-2.609-3.495l-2.557-3.453-3.203-4.745c-1.068-1.588-2.14-3.172-3.229-4.744-0.011 0-0.025 2.109-0.031 4.681-0.011 4.505-0.011 4.688-0.068 4.792-0.057 0.125-0.151 0.229-0.276 0.287-0.099 0.047-0.188 0.057-0.661 0.057h-0.541l-0.141-0.088c-0.088-0.057-0.161-0.136-0.208-0.229l-0.068-0.141 0.005-6.271 0.011-6.271 0.099-0.125c0.063-0.077 0.141-0.14 0.229-0.187 0.131-0.063 0.183-0.073 0.724-0.073 0.635 0 0.74 0.025 0.907 0.208 1.296 1.932 2.588 3.869 3.859 5.812 2.079 3.152 4.917 7.453 6.312 9.563l2.537 3.839 0.125-0.083c1.219-0.813 2.328-1.781 3.285-2.885 2.016-2.308 3.324-5.147 3.767-8.177 0.129-0.88 0.145-1.141 0.145-2.333 0-1.193-0.016-1.448-0.145-2.328-0.871-6.011-5.147-11.057-10.943-12.928-1.084-0.343-2.199-0.577-3.328-0.697-0.303-0.031-2.371-0.068-2.631-0.041zM21.5 9.688c0.151 0.072 0.265 0.208 0.317 0.364 0.027 0.084 0.032 1.823 0.027 5.74l-0.011 5.624-0.989-1.52-0.995-1.521v-4.083c0-2.647 0.011-4.131 0.025-4.204 0.047-0.167 0.161-0.307 0.313-0.395 0.124-0.063 0.172-0.068 0.667-0.068 0.463 0 0.541 0.005 0.645 0.063z" />
    </symbol>
	<symbol id="i-html" viewBox="0 0 512 512">
		<path d="M365.6,285.9H40.3v133.9h276.3L365.6,285.9z M130.5,380.4h-9.2V357H96.8v23.5h-9.2v-55h9.2 v24.2h24.6v-24.2h9.2V380.4z M181.7,332.8h-17v47.6h-9.2v-47.6h-16.7v-7.4h42.9V332.8z M246.7,380.4h-9.2v-39.5l-0.2,0l-15.1,39.6   h-6.3l-15.4-40.3l-0.2,0.1v40.2H191v-55h12.1l15.8,42.3h0.2l15.9-42.3h11.7V380.4z M295.6,380.4h-34.9v-55h9.2v47.7h25.8V380.4z" /><path d="M352.9,6L352.9,6L107.4,6c-7.3,0-13.3,6-13.3,13.3v256.8h26.6V32.6h232.2v92.2h92.2v354.6 H120.7v-49.8H94.1v63.1c0,7.3,6,13.3,13.3,13.3h351c7.3,0,13.3-6,13.3-13.3V124.8L352.9,6z" />
	</symbol>
	<symbol id="i-css" viewBox="0 0 512 512">
        <path d="M365.6,285.9H40.3v133.9h276.3L365.6,285.9z M118.4,374.6c2.7,3.7,6.5,5.5,11.2,5.5 c4.6,0,8.2-1.2,10.6-3.6c2.4-2.4,3.6-5.9,3.6-10.5h10.9l0.1,0.3c0.1,6.9-2.1,12.4-6.7,16.6c-4.6,4.2-10.8,6.3-18.6,6.3 c-7.9,0-14.3-2.7-19.3-8c-4.9-5.3-7.4-12.2-7.4-20.5v-12.9c0-8.3,2.4-15.1,7.3-20.5c4.9-5.4,11.2-8.1,19-8.1c8,0,14.3,2,18.9,6.1 c4.6,4.1,6.8,9.7,6.7,16.8l-0.1,0.3h-11c0-4.5-1.2-8-3.7-10.4c-2.5-2.4-6.1-3.6-10.8-3.6c-4.6,0-8.3,1.8-11,5.5 c-2.7,3.7-4,8.3-4,13.9v13C114.3,366.3,115.6,370.9,118.4,374.6z M209.2,384.1c-4.4,3.4-10.2,5-17.4,5c-6.9,0-12.9-1.8-18.1-5.5 c-5.1-3.7-7.6-8.9-7.5-15.6l0.1-0.3h10.9c0,4.1,1.4,7.2,4.2,9.2c2.8,2.1,6.3,3.1,10.3,3.1c4,0,7.1-0.8,9.4-2.5 c2.2-1.7,3.3-4,3.3-6.9c0-2.8-1-5.2-3-7c-2-1.8-5.6-3.4-10.7-4.9c-7.3-2-13-4.7-16.9-8c-4-3.3-6-7.6-6-12.9c0-5.5,2.2-10,6.5-13.6 c4.4-3.6,10-5.3,16.8-5.3c7.4,0,13.2,2,17.6,5.9c4.4,3.9,6.5,8.8,6.4,14.6l-0.1,0.3h-10.9c0-3.6-1.2-6.4-3.6-8.6 c-2.4-2.1-5.6-3.2-9.5-3.2c-3.8,0-6.8,0.9-8.9,2.7c-2.1,1.8-3.1,4.1-3.1,7c0,2.6,1.1,4.8,3.4,6.5c2.3,1.7,6,3.3,11.3,4.8 c7.1,2,12.6,4.7,16.3,8.2c3.7,3.4,5.6,7.8,5.6,13.2C215.8,376.2,213.6,380.7,209.2,384.1z M270.9,384.1c-4.4,3.4-10.2,5-17.4,5 c-6.9,0-12.9-1.8-18.1-5.5c-5.1-3.7-7.6-8.9-7.5-15.6l0.1-0.3h10.9c0,4.1,1.4,7.2,4.2,9.2c2.8,2.1,6.3,3.1,10.3,3.1 c4,0,7.1-0.8,9.4-2.5c2.2-1.7,3.3-4,3.3-6.9c0-2.8-1-5.2-3-7c-2-1.8-5.6-3.4-10.7-4.9c-7.3-2-13-4.7-16.9-8c-4-3.3-6-7.6-6-12.9 c0-5.5,2.2-10,6.5-13.6c4.4-3.6,10-5.3,16.8-5.3c7.4,0,13.2,2,17.6,5.9c4.4,3.9,6.5,8.8,6.4,14.6l-0.1,0.3h-10.9 c0-3.6-1.2-6.4-3.6-8.6c-2.4-2.1-5.6-3.2-9.5-3.2c-3.8,0-6.8,0.9-8.9,2.7c-2.1,1.8-3.1,4.1-3.1,7c0,2.6,1.1,4.8,3.4,6.5 c2.3,1.7,6,3.3,11.3,4.8c7.1,2,12.6,4.7,16.3,8.2c3.7,3.4,5.6,7.8,5.6,13.2C277.5,376.2,275.3,380.7,270.9,384.1z" /><path d="M352.9,6L352.9,6L107.4,6c-7.3,0-13.3,6-13.3,13.3v256.8h26.6V32.6h232.2v92.2h92.2v354.6 H120.7v-49.8H94.1v63.1c0,7.3,6,13.3,13.3,13.3h351c7.3,0,13.3-6,13.3-13.3V124.8L352.9,6z" />
	</symbol>
	<symbol id="i-sass" viewBox="0 0 32 32">
		<path d="M16.171,18.7c-.481.221-1.008.509-2.063,1.088-.4.225-.818.45-1.207.662-.027-.027-.055-.061-.082-.089-2.087-2.23-5.947-3.805-5.783-6.8.061-1.091.436-3.955,7.413-7.433,5.742-2.83,10.311-2.046,11.1-.307C26.683,8.3,23.1,12.913,17.17,13.582a4.469,4.469,0,0,1-3.751-.948c-.314-.341-.361-.361-.477-.293-.191.1-.068.409,0,.586a3.5,3.5,0,0,0,2.141,1.684,11.4,11.4,0,0,0,6.956-.689c3.594-1.391,6.4-5.258,5.578-8.5-.825-3.287-6.281-4.371-11.443-2.537a26,26,0,0,0-8.79,5.047c-2.844,2.66-3.294,4.972-3.11,5.94.662,3.437,5.4,5.674,7.3,7.331-.1.055-.184.1-.259.143-.948.471-4.562,2.36-5.463,4.358-1.023,2.264.164,3.887.948,4.105a5.832,5.832,0,0,0,6.281-2.544,6.3,6.3,0,0,0,.559-5.8,5.03,5.03,0,0,1,.716-.477c.484-.286.945-.568,1.354-.786l0,0a10.475,10.475,0,0,1,4.475-.989c3.246.382,3.887,2.407,3.764,3.26a2.157,2.157,0,0,1-1.03,1.459c-.225.143-.3.191-.28.293.027.15.136.143.327.116a2.535,2.535,0,0,0,1.766-2.257c.1-2-1.807-4.194-5.183-4.174a7.753,7.753,0,0,0-2.946.587q-.225.093-.437.2Zm-4.825,7.839c-1.078,1.173-2.578,1.616-3.226,1.241-.7-.4-.423-2.135.9-3.376a17.18,17.18,0,0,1,2.53-1.889c.157-.1.389-.232.668-.4.048-.027.075-.041.075-.041l.164-.1A4.658,4.658,0,0,1,11.346,26.539Z" />
	</symbol> 
	<symbol id="i-git" viewBox="0 0 64 64">
		<path id="github" d="M32.029,8.345c-13.27,0 -24.029,10.759 -24.029,24.033c0,10.617 6.885,19.624 16.435,22.803c1.202,0.22 1.64,-0.522 1.64,-1.16c0,-0.569 -0.02,-2.081 -0.032,-4.086c-6.685,1.452 -8.095,-3.222 -8.095,-3.222c-1.093,-2.775 -2.669,-3.514 -2.669,-3.514c-2.182,-1.492 0.165,-1.462 0.165,-1.462c2.412,0.171 3.681,2.477 3.681,2.477c2.144,3.672 5.625,2.611 6.994,1.997c0.219,-1.553 0.838,-2.612 1.526,-3.213c-5.336,-0.606 -10.947,-2.669 -10.947,-11.877c0,-2.623 0.937,-4.769 2.474,-6.449c-0.247,-0.608 -1.072,-3.051 0.235,-6.36c0,0 2.018,-0.646 6.609,2.464c1.917,-0.533 3.973,-0.8 6.016,-0.809c2.041,0.009 4.097,0.276 6.017,0.809c4.588,-3.11 6.602,-2.464 6.602,-2.464c1.311,3.309 0.486,5.752 0.239,6.36c1.54,1.68 2.471,3.826 2.471,6.449c0,9.232 -5.62,11.263 -10.974,11.858c0.864,0.742 1.632,2.208 1.632,4.451c0,3.212 -0.029,5.804 -0.029,6.591c0,0.644 0.432,1.392 1.652,1.157c9.542,-3.185 16.421,-12.186 16.421,-22.8c0,-13.274 -10.76,-24.033 -24.034,-24.033" />
	</symbol>
	<symbol id="i-redux" viewBox="0 0 512 512">
		<path d="M290.5827332,477.715332c9.087616-6.4911194,22.0698853-16.8769531,29.2101135-23.368042c124.4559326,49.4433899,165.0598145-47.1943054,161.8180847-84.0771484c-3.5895996-40.8399353-54.298645-157.390976-226.728302-157.39328c-8.1076813,19.0032654-31.8166199,28.5365295-51.4269409,17.1775208c-24.0652771-13.9395142-24.0652771-48.9773712,0-62.9168243c18.6949158-10.8288269,41.1114502-2.667511,50.1887207,14.5818939c104.6848145-0.5327454,222.0458069,43.9302521,254.8640442,167.6486816C532.177063,438.5942993,432.8744812,542.6099243,290.5827332,477.715332z M354.9891663,351.5217896c17.3190308-2.0410767,32.3324585-16.4964905,32.3324585-36.0848083c0-27.8788757-30.4049072-45.3978577-54.5975037-31.4584045c-21.2230225,12.2284546-23.8233948,40.6903076-7.8106384,56.9048157C267.4715881,447.9807129,139.180481,489.8563232,71.4811935,449.20755C33.9913254,426.6974487-4.669035,346.1156616,85.4626617,271.9462585c-2.596489-8.4384766-6.4911652-22.7190094-8.4384766-33.1048584C-85.0232086,360.9573059,31.6251106,555.2648926,214.3358307,479.5959473C263.7343445,459.1376648,317.2936401,423.3825073,354.9891663,351.5217896z M157.3849945,392.9820862c24.2267151,13.9394531,54.6745605-3.5794373,54.6745605-31.4584045c0-23.2654114-21.2043915-39.2989502-42.3022614-35.8728027C35.7418594,75.3250809,317.8963318-73.329895,354.1958618,163.5441284l32.455719,9.7367249C363.0523987-17.2608185,220.5851746,0.1739823,174.9452362,38.7649002c-34.2060699,28.922966-125.6453094,130.6958313-31.1728516,305.0267029C134.6686707,360.1824341,139.2055969,382.5221252,157.3849945,392.9820862z" />
	</symbol>
	<symbol id="i-ts" viewBox="0 0 512 512">
        <path d="M373.6465149,289.5476379H312.390686v189.7456665l-33.7347107-0.0000305v-189.745636h-61.1287994v-31.37677h156.119339V289.5476379z M507.3800964,398.535675c-21.3193054-42.9439697-71.9799805-45.6103516-86.7124634-72.728302c-16.2763367-43.9219055,50.8490906-51.8579102,83.0995178-22.2676086v-39.4264526c-13.7410278-8.8743286-35.590271-9.8278809-50.9179993-9.0001831c-40.4500732,2.1843262-67.6317749,25.6871338-67.2262573,60.6980591c-1.7426453,48.8711548,54.0643311,61.4549255,82.0871887,84.0719299c19.0316162,16.1492004,17.6693726,55.3132019-29.3473511,51.4010315c-15.0501709-1.3822937-34.3663025-4.2957764-53.0340576-24.6832886v41.9417114c34.2955017,22.29245,93.2791138,18.2008667,113.8417053-8.592804C511.3911438,444.0257263,516.4275513,422.6948853,507.3800964,398.535675z" /><path d="M178.9164124,397.8771362l17.4700012,60.6674805h52.6664429V335.5990601c-24.9207764,8.6644287-53.5789795,7.3724976-79.5404053-7.5945435c-64.1425781-36.9789429-64.1425781-129.9281006-0.000061-166.9069824c58.3208008-33.6226196,130.2502441,1.7504272,142.8283081,64.0403442l62.4865112-0.000061c-2.4333496-20.2295532-8.6228027-38.9351196-17.7116089-55.640625l35.4249878-62.904541l-35.3077393-35.3077393l-62.3120728,35.6037598c-10.0150146-5.6047974-20.62323-10.1500854-31.6339722-13.5203247l-18.8426514-68.1796875h-50.0192871l-18.3114014,66.7798462c-11.7113647,3.2211914-23.3220825,7.8920898-34.6424561,14.1226807l-59.3444214-33.335144l-35.3077393,35.3078003L79.74823,166.9365234c-6.2023315,11.0975952-10.956665,22.8284912-14.2806396,34.8983765L0.7225952,220.852478v50.0193481l65.0929565,17.6815186c3.4159546,12.0096436,8.274292,23.6650391,14.5515137,34.6882935L48.289978,383.170105l35.3077393,35.3077393l59.3304443-34.659668C154.6939087,390.1408691,166.756073,394.7758179,178.9164124,397.8771362z" />
	</symbol>
	<symbol id="i-js" viewBox="0 0 448 512">
		<path d="M224 508c-6.7 0-13.5-1.8-19.4-5.2l-61.7-36.5c-9.2-5.2-4.7-7-1.7-8 12.3-4.3 14.8-5.2 27.9-12.7 1.4-.8 3.2-.5 4.6.4l47.4 28.1c1.7 1 4.1 1 5.7 0l184.7-106.6c1.7-1 2.8-3 2.8-5V149.3c0-2.1-1.1-4-2.9-5.1L226.8 37.7c-1.7-1-4-1-5.7 0L36.6 144.3c-1.8 1-2.9 3-2.9 5.1v213.1c0 2 1.1 4 2.9 4.9l50.6 29.2c27.5 13.7 44.3-2.4 44.3-18.7V167.5c0-3 2.4-5.3 5.4-5.3h23.4c2.9 0 5.4 2.3 5.4 5.3V378c0 36.6-20 57.6-54.7 57.6-10.7 0-19.1 0-42.5-11.6l-48.4-27.9C8.1 389.2.7 376.3.7 362.4V149.3c0-13.8 7.4-26.8 19.4-33.7L204.6 9c11.7-6.6 27.2-6.6 38.8 0l184.7 106.7c12 6.9 19.4 19.8 19.4 33.7v213.1c0 13.8-7.4 26.7-19.4 33.7L243.4 502.8c-5.9 3.4-12.6 5.2-19.4 5.2zm149.1-210.1c0-39.9-27-50.5-83.7-58-57.4-7.6-63.2-11.5-63.2-24.9 0-11.1 4.9-25.9 47.4-25.9 37.9 0 51.9 8.2 57.7 33.8.5 2.4 2.7 4.2 5.2 4.2h24c1.5 0 2.9-.6 3.9-1.7s1.5-2.6 1.4-4.1c-3.7-44.1-33-64.6-92.2-64.6-52.7 0-84.1 22.2-84.1 59.5 0 40.4 31.3 51.6 81.8 56.6 60.5 5.9 65.2 14.8 65.2 26.7 0 20.6-16.6 29.4-55.5 29.4-48.9 0-59.6-12.3-63.2-36.6-.4-2.6-2.6-4.5-5.3-4.5h-23.9c-3 0-5.3 2.4-5.3 5.3 0 31.1 16.9 68.2 97.8 68.2 58.4-.1 92-23.2 92-63.4z" />
	</symbol>
	<symbol id="i-vue" viewBox="0 0 15 15">
		<path d="M7.5 13.5L7.06811 13.7519C7.15772 13.9055 7.32217 14 7.5 14C7.67783 14 7.84228 13.9055 7.93189 13.7519L7.5 13.5ZM11.5 1.5L11.9341 1.74807C12.0226 1.59332 12.0219 1.40319 11.9325 1.24904C11.843 1.09488 11.6782 1 11.5 1V1.5ZM7.5 8.5L7.06588 8.74807C7.1549 8.90386 7.32057 9 7.5 9C7.67943 9 7.8451 8.90386 7.93412 8.74807L7.5 8.5ZM3.5 1.5V1C3.32176 1 3.15701 1.09488 3.06754 1.24904C2.97808 1.40319 2.97745 1.59332 3.06588 1.74807L3.5 1.5ZM6.5 1.5L6.94721 1.27639L6.80902 1H6.5V1.5ZM7.5 3.5L7.05279 3.72361C7.13748 3.893 7.31061 4 7.5 4C7.68939 4 7.86252 3.893 7.94721 3.72361L7.5 3.5ZM8.5 1.5V1H8.19098L8.05279 1.27639L8.5 1.5ZM0.0681106 1.75194L7.06811 13.7519L7.93189 13.2481L0.931889 1.24806L0.0681106 1.75194ZM7.93189 13.7519L14.9319 1.75194L14.0681 1.24806L7.06811 13.2481L7.93189 13.7519ZM11.0659 1.25193L7.06588 8.25193L7.93412 8.74807L11.9341 1.74807L11.0659 1.25193ZM7.93412 8.25193L3.93412 1.25193L3.06588 1.74807L7.06588 8.74807L7.93412 8.25193ZM3.5 2H6.5V1H3.5V2ZM6.05279 1.72361L7.05279 3.72361L7.94721 3.27639L6.94721 1.27639L6.05279 1.72361ZM7.94721 3.72361L8.94721 1.72361L8.05279 1.27639L7.05279 3.27639L7.94721 3.72361ZM8.5 2H11.5V1H8.5V2Z" />
	</symbol>
	<symbol id="i-pug" viewBox="0 0 24 24">
		<path d="M12.0938 4.6358c-2.0663 0-3.6817.204-4.9221.5704a6.4511 6.4511 0 0 0 .0918-.084c.0374-.0375-.0507-.0625-.2285-.0684-.5335-.0175-1.8672.1436-2.9904.7051-1.273.599-4.118 3.7446-4.0432 3.9318.075.1872 1.4594 1.3458 1.8712 1.795.2621.2995 1.0485 2.9592 1.7599 2.51.189-.131.2656-.651.33-1.2931.0582.4975.1155 1.013.1934 1.4805.1123.7488 1.087 1.3474 1.1993 2.0587.1391 1.0138.7614 1.7234 1.9805 2.174.4847.6681 1.2382.3299 1.801.6347.8984.4867 1.9091.2617 2.92.2617 1.0108 0 1.984.186 2.92-.3007.576-.2995 1.32.0311 1.8087-.5802 1.2254-.4494 1.8319-1.1633 1.9727-2.1895.1123-.7113 1.0479-1.3099 1.1602-2.0587.0633-.3799.1102-.802.1582-1.2032.0568.4994.13.9042.291 1.0157.674.4493 1.4978-2.2104 1.7599-2.5099.4118-.4492 1.7963-1.6078 1.8712-1.795.0748-.1872-2.8074-3.3327-4.0803-3.9318-1.1231-.5615-2.4568-.7226-2.9903-.705-.167.0054-.2454.0287-.2247.0624-1.1748-.308-2.6728-.4805-4.6095-.4805zm.0293.5c2.2035 0 3.8486.2253 5.01.6153.1335.0449.2387.098.3593.1465.6901.715 1.6233 1.831 2.0138 3.1173.0246.081.0405.1658.0625.248.0003.0013-.0003.0028 0 .004v.0039c.0453.77.3158 1.4169.2305 1.9903-.1536.9982-.2285 1.9726-.373 2.84l-.002.0039v.0039c-.0289.1922-.218.4762-.4786.8067-.2606.3305-.5955.7024-.6817 1.248v.006l-.0019.0038c-.1006.733-.4207 1.1997-1.17 1.5821.1252-.4447.2051-1.055.2051-1.963.0374-1.1231.0766-1.5722-.8594-2.6954-.7184-.9236-1.704-1.5746-2.793-1.8985-.1111-.3899-.7217-.836-1.551-.836-.8285 0-1.4147.422-1.5352.8204-1.1098.3182-2.116.9759-2.8458 1.9141-.936 1.1232-.8594 1.6097-.8594 2.6955 0 .9037.0795 1.5135.2031 1.961-.7697-.385-1.1078-.857-1.207-1.5802v-.0097c-.0875-.5541-.4371-.9235-.7071-1.254-.27-.3305-.4626-.6166-.4903-.8008l-.002-.004v-.0038c-.1444-.8669-.2196-1.8406-.373-2.838v-.002c-.0853-.5734.1833-1.2203.2285-1.9903v.0156c.0131-.1437.0173-.241.0254-.371.3604-1.1587 1.1531-2.1726 1.8048-2.8752a6.4135 6.4135 0 0 1 .7246-.289c1.1921-.3916 2.8593-.6153 5.0628-.6153zm-5.2092 3.805a1.6473 1.6473 0 0 0-1.6349 1.6484 1.6473 1.6473 0 0 0 1.6485 1.6466 1.6473 1.6473 0 0 0 .4415-.0606c.3487-.3747.7177-.7223 1.1113-1.041a1.6473 1.6473 0 0 0 .0938-.545 1.6473 1.6473 0 0 0-1.6466-1.6485 1.6473 1.6473 0 0 0-.0136 0zm10.2973 0a1.6473 1.6473 0 0 0-1.6368 1.6484 1.6473 1.6473 0 0 0 .1504.6836c.3125.2642.611.547.8945.8477a1.6473 1.6473 0 0 0 .6036.1153 1.6473 1.6473 0 0 0 1.6465-1.6466 1.6473 1.6473 0 0 0-1.6465-1.6485 1.6473 1.6473 0 0 0-.0117 0zm-9.8715.4863a.4118.4118 0 0 1 .4101.412.4118.4118 0 0 1-.4101.4122.4118.4118 0 0 1-.4122-.4121.4118.4118 0 0 1 .4122-.4121zm9.471 0a.4118.4118 0 0 1 .4122.412.4118.4118 0 0 1-.4121.4122.4118.4118 0 0 1-.4122-.4121.4118.4118 0 0 1 .4122-.4121zm-5.1095 1.4863a.1498.2995 17.23 0 1 .0293.004.1498.2995 17.23 0 1 .0547.33.1498.2995 17.23 0 1-.2325.2422.1498.2995 17.23 0 1-.0527-.33.1498.2995 17.23 0 1 .2012-.2462zm.6719.0215a.2995.1498 75.54 0 1 .205.254.2995.1498 75.54 0 1-.0703.328.2995.1498 75.54 0 1-.2207-.2519.2995.1498 75.54 0 1 .0703-.3281.2995.1498 75.54 0 1 .0157-.002zm-.3164.4766s.0358.226.1855.3008c.1498.0749.8614-.1504.8614-.1504-.337.262-.9727.263-.9727.338v.373c0 .4079.0263 1.4614-.0313 1.6856.8238.0045 2.09 1.1255 2.09 2.508v.0741c-.0375-1.3478-1.6091-2.4337-2.0958-2.4337-.4867 0-2.0603 1.0485-2.0978 2.4337v-.0742c0-1.3626 1.2326-2.47 2.0567-2.506-.0704-.5517-.0722-1.1372-.0722-1.6875v-.373c-.2145-.0954-.4322-.1714-.6563-.2364.1846.0326.371.0488.545.0488.1497-.0749.1875-.3008.1875-.3008zm-3.0412 1.3477a.1498.1498 0 0 1 .0078 0 .1498.1498 0 0 1 .1504.1504.1498.1498 0 0 1-.1504.1504.1498.1498 0 0 1-.1504-.1504.1498.1498 0 0 1 .1426-.1504zm1.1231 0a.1498.1498 0 0 1 .0078 0 .1498.1498 0 0 1 .1504.1504.1498.1498 0 0 1-.1504.1504.1498.1498 0 0 1-.1504-.1504.1498.1498 0 0 1 .1426-.1504zm3.67 0a.1498.1498 0 0 1 .0079 0 .1498.1498 0 0 1 .1504.1504.1498.1498 0 0 1-.1504.1504.1498.1498 0 0 1-.1504-.1504.1498.1498 0 0 1 .1426-.1504zm1.1232 0a.1498.1498 0 0 1 .0078 0 .1498.1498 0 0 1 .1504.1504.1498.1498 0 0 1-.1504.1504.1498.1498 0 0 1-.1504-.1504.1498.1498 0 0 1 .1426-.1504zm-5.6526.8985a.1498.1498 0 0 1 .0078 0 .1498.1498 0 0 1 .1484.1504.1498.1498 0 0 1-.1484.1504.1498.1498 0 0 1-.1504-.1504.1498.1498 0 0 1 .1426-.1504zm5.3908 0a.1498.1498 0 0 1 .006 0 .1498.1498 0 0 1 .1503.1504.1498.1498 0 0 1-.1504.1504.1498.1498 0 0 1-.1484-.1504.1498.1498 0 0 1 .1425-.1504Z" />
	</symbol>
	<symbol id="i-gulp" viewBox="0 0 256 512">
		<path d="M209.8 391.1l-14.1 24.6-4.6 80.2c0 8.9-28.3 16.1-63.1 16.1s-63.1-7.2-63.1-16.1l-5.8-79.4-14.9-25.4c41.2 17.3 126 16.7 165.6 0zm-196-253.3l13.6 125.5c5.9-20 20.8-47 40-55.2 6.3-2.7 12.7-2.7 18.7.9 5.2 3 9.6 9.3 10.1 11.8 1.2 6.5-2 9.1-4.5 9.1-3 0-5.3-4.6-6.8-7.3-4.1-7.3-10.3-7.6-16.9-2.8-6.9 5-12.9 13.4-17.1 20.7-5.1 8.8-9.4 18.5-12 28.2-1.5 5.6-2.9 14.6-.6 19.9 1 2.2 2.5 3.6 4.9 3.6 5 0 12.3-6.6 15.8-10.1 4.5-4.5 10.3-11.5 12.5-16l5.2-15.5c2.6-6.8 9.9-5.6 9.9 0 0 10.2-3.7 13.6-10 34.7-5.8 19.5-7.6 25.8-7.6 25.8-.7 2.8-3.4 7.5-6.3 7.5-1.2 0-2.1-.4-2.6-1.2-1-1.4-.9-5.3-.8-6.3.2-3.2 6.3-22.2 7.3-25.2-2 2.2-4.1 4.4-6.4 6.6-5.4 5.1-14.1 11.8-21.5 11.8-3.4 0-5.6-.9-7.7-2.4l7.6 79.6c2 5 39.2 17.1 88.2 17.1 49.1 0 86.3-12.2 88.2-17.1l10.9-94.6c-5.7 5.2-12.3 11.6-19.6 14.8-5.4 2.3-17.4 3.8-17.4-5.7 0-5.2 9.1-14.8 14.4-21.5 1.4-1.7 4.7-5.9 4.7-8.1 0-2.9-6-2.2-11.7 2.5-3.2 2.7-6.2 6.3-8.7 9.7-4.3 6-6.6 11.2-8.5 15.5-6.2 14.2-4.1 8.6-9.1 22-5 13.3-4.2 11.8-5.2 14-.9 1.9-2.2 3.5-4 4.5-1.9 1-4.5.9-6.1-.3-.9-.6-1.3-1.9-1.3-3.7 0-.9.1-1.8.3-2.7 1.5-6.1 7.8-18.1 15-34.3 1.6-3.7 1-2.6.8-2.3-6.2 6-10.9 8.9-14.4 10.5-5.8 2.6-13 2.6-14.5-4.1-.1-.4-.1-.8-.2-1.2-11.8 9.2-24.3 11.7-20-8.1-4.6 8.2-12.6 14.9-22.4 14.9-4.1 0-7.1-1.4-8.6-5.1-2.3-5.5 1.3-14.9 4.6-23.8 1.7-4.5 4-9.9 7.1-16.2 1.6-3.4 4.2-5.4 7.6-4.5.6.2 1.1.4 1.6.7 2.6 1.8 1.6 4.5.3 7.2-3.8 7.5-7.1 13-9.3 20.8-.9 3.3-2 9 1.5 9 2.4 0 4.7-.8 6.9-2.4 4.6-3.4 8.3-8.5 11.1-13.5 2-3.6 4.4-8.3 5.6-12.3.5-1.7 1.1-3.3 1.8-4.8 1.1-2.5 2.6-5.1 5.2-5.1 1.3 0 2.4.5 3.2 1.5 1.7 2.2 1.3 4.5.4 6.9-2 5.6-4.7 10.6-6.9 16.7-1.3 3.5-2.7 8-2.7 11.7 0 3.4 3.7 2.6 6.8 1.2 2.4-1.1 4.8-2.8 6.8-4.5 1.2-4.9.9-3.8 26.4-68.2 1.3-3.3 3.7-4.7 6.1-4.7 1.2 0 2.2.4 3.2 1.1 1.7 1.3 1.7 4.1 1 6.2-.7 1.9-.6 1.3-4.5 10.5-5.2 12.1-8.6 20.8-13.2 31.9-1.9 4.6-7.7 18.9-8.7 22.3-.6 2.2-1.3 5.8 1 5.8 5.4 0 19.3-13.1 23.1-17 .2-.3.5-.4.9-.6.6-1.9 1.2-3.7 1.7-5.5 1.4-3.8 2.7-8.2 5.3-11.3.8-1 1.7-1.6 2.7-1.6 2.8 0 4.2 1.2 4.2 4 0 1.1-.7 5.1-1.1 6.2 1.4-1.5 2.9-3 4.5-4.5 15-13.9 25.7-6.8 25.7.2 0 7.4-8.9 17.7-13.8 23.4-1.6 1.9-4.9 5.4-5 6.4 0 1.3.9 1.8 2.2 1.8 2 0 6.4-3.5 8-4.7 5-3.9 11.8-9.9 16.6-14.1l14.8-136.8c-30.5 17.1-197.6 17.2-228.3.2zm229.7-8.5c0 21-231.2 21-231.2 0 0-8.8 51.8-15.9 115.6-15.9 9 0 17.8.1 26.3.4l12.6-48.7L228.1.6c1.4-1.4 5.8-.2 9.9 3.5s6.6 7.9 5.3 9.3l-.1.1L185.9 74l-10 40.7c39.9 2.6 67.6 8.1 67.6 14.6zm-69.4 4.6c0-.8-.9-1.5-2.5-2.1l-.2.8c0 1.3-5 2.4-11.1 2.4s-11.1-1.1-11.1-2.4c0-.1 0-.2.1-.3l.2-.7c-1.8.6-3 1.4-3 2.3 0 2.1 6.2 3.7 13.7 3.7 7.7.1 13.9-1.6 13.9-3.7z" />
	</symbol>

	<!-- Contacts -->

	<symbol id="i-email" viewBox="0 0 64 64">
		<path d="M32,0C14.327,0,0,14.327,0,32s14.327,32,32,32s32-14.327,32-32S49.673,0,32,0z M32,62C15.432,62,2,48.568,2,32.001 C2,15.432,15.432,2,32,2c16.568,0,30,13.432,30,30.001C62,48.568,48.568,62,32,62z" />
		<path d="M46,21H18c-1.104,0-2,0.896-2,2v18c0,1.104,0.896,2,2,2h28c1.104,0,2-0.896,2-2V23C48,21.896,47.104,21,46,21z
		M44.205,23L32,35L19.891,23H44.205z M18,41V24.006l9.589,9.589L20.061,41H18z M22.985,41l6.081-5.927l1.58,1.579
		c0.781,0.781,2.047,0.781,2.829,0l1.531-1.531L41.087,41H22.985z M46,41h-1.939l-7.527-7.405L46,24.128V41z" />
	</symbol>
	<symbol id="i-phone" viewBox="0 0 512 512">
		<path d="M256,32c123.5,0,224,100.5,224,224S379.5,480,256,480S32,379.5,32,256S132.5,32,256,32 M256,0C114.625,0,0,114.625,0,256
		s114.625,256,256,256s256-114.625,256-256S397.375,0,256,0L256,0z M398.719,341.594l-1.438-4.375
		c-3.375-10.062-14.5-20.562-24.75-23.375L334.688,303.5c-10.25-2.781-24.875,0.969-32.405,8.5l-13.688,13.688
		c-49.75-13.469-88.781-52.5-102.219-102.25l13.688-13.688c7.5-7.5,11.25-22.125,8.469-32.406L198.219,139.5
		c-2.781-10.25-13.344-21.375-23.406-24.75l-4.313-1.438c-10.094-3.375-24.5,0.031-32,7.563l-20.5,20.5
		c-3.656,3.625-6,14.031-6,14.063c-0.688,65.063,24.813,127.719,70.813,173.75c45.875,45.875,108.313,71.345,173.156,70.781
		c0.344,0,11.063-2.281,14.719-5.938l20.5-20.5C398.688,366.062,402.062,351.656,398.719,341.594z"/>
	</symbol>
	<symbol id="i-linkedin" viewBox="0 0 32 32">
		<path d="M23.247 21.927v-5.36c0-2.872-1.533-4.208-3.577-4.208-1.649 0-2.388.907-2.8 1.544v-1.324h-3.107c.041.877 0 9.348 0 9.348h3.107v-5.221c0-.279.02-.558.103-.757.224-.558.735-1.136 1.593-1.136 1.125 0 1.574.857 1.574 2.113v5.001h3.107zM10.49 11.303c1.083 0 1.758-.718 1.758-1.616-.02-.917-.675-1.614-1.738-1.614s-1.757.697-1.757 1.614c0 .897.675 1.616 1.717 1.616h.02zm1.553 10.624v-9.348H8.937v9.348h3.106z" /><path d="M16 1c8.271 0 15 6.729 15 15s-6.729 15-15 15S1 24.271 1 16 7.729 1 16 1m0-1C7.163 0 0 7.163 0 16s7.164 16 16 16 16-7.164 16-16S24.836 0 16 0z" />
	</symbol>
	<symbol id="i-github" viewBox="0 0 32 32">
		<path d="M18.52 24.493h-4.528s.006-1.344 0-2.265c-3.099.667-3.964-1.699-3.964-1.699-.566-1.132-1.132-1.699-1.132-1.699-1.132-.673 0-.566 0-.566 1.132 0 1.699 1.132 1.699 1.132.994 1.687 2.762 1.416 3.397 1.132 0-.566.248-1.422.566-1.699-2.473-.279-4.532-1.699-4.532-4.53s.568-3.397 1.135-3.964c-.114-.279-.588-1.311.018-2.831 0 0 1.113 0 2.245 1.699.561-.561 2.265-.566 2.832-.566.565 0 2.269.005 2.83.566 1.132-1.699 2.248-1.699 2.248-1.699.605 1.52.132 2.552.017 2.831.566.566 1.132 1.132 1.132 3.964s-2.056 4.251-4.53 4.53c.319.276.566 1.251.566 1.699l.001 3.965z" /><path d="M16 1c8.271 0 15 6.729 15 15s-6.729 15-15 15S1 24.271 1 16 7.729 1 16 1m0-1C7.163 0 0 7.164 0 16s7.163 16 16 16 16-7.163 16-16S24.836 0 16 0z" />
	</symbol>
	<symbol id="i-telegram" viewBox="0 0 64 64">
		<path d="M46.57,19.17c-0.72-0.58-1.69-0.59-1.87-0.59c-1.35,0.02-2.92,0.54-12.13,4.37c-3.05,1.27-9.24,3.93-18.39,7.92
		c-1.92,0.77-2.83,1.55-2.95,2.54c-0.22,1.79,1.62,2.37,3.41,2.93l0.68,0.22c1.35,0.44,3.82,1.18,5.19,1.21c1.23,0,2.58-0.46,4-1.43c4.87-3.29,7.97-5.36,9.92-6.65c-1.56,1.49-3.38,3.19-4.34,4.08c-0.78,0.72-1.33,1.24-1.45,1.36c-0.24,0.25-0.48,0.48-0.71,0.71c-1.02,0.98-1.97,1.9-1.86,3.19c0.11,1.23,1.23,2.1,2.06,2.65c1.28,0.84,2.3,1.54,3.33,2.24c1.13,0.77,2.25,1.54,3.71,2.49c0.36,0.24,0.7,0.48,1.03,0.72c1.27,0.9,2.57,1.83,4.2,1.83c0.13,0,0.26-0.01,0.4-0.02c1.06-0.1,2.45-0.88,3.05-4.04c1.01-5.39,3.09-17.59,3.58-22.76c0.06-0.58-0.02-1.24-0.06-1.51C47.33,20.4,47.21,19.69,46.57,19.17z M45.45,21.94c-0.48,5.04-2.59,17.39-3.56,22.58c-0.32,1.73-0.86,2.38-1.26,2.42c-1.08,0.1-2.04-0.58-3.26-1.45c-0.35-0.25-0.72-0.51-1.1-0.76c-1.45-0.95-2.56-1.71-3.68-2.47c-1.03-0.7-2.06-1.4-3.35-2.25c-1.08-0.71-1.16-1.09-1.17-1.17c-0.03-0.33,0.68-1.02,1.25-1.57c0.25-0.24,0.51-0.49,0.77-0.76c0.11-0.11,0.63-0.6,1.37-1.28c7.06-6.56,7.45-7.14,7.58-7.67c0.08-0.35,0.08-1.06-0.46-1.53c-0.32-0.29-0.69-0.36-0.99-0.36c-0.24,0-0.43,0.05-0.55,0.07c-0.31,0.07-0.6,0.14-13.64,8.94c-1.08,0.74-2.03,1.13-2.83,1.09c-0.8-0.02-2.53-0.43-4.61-1.11l-0.7-0.22c-0.73-0.23-1.7-0.53-1.99-0.78c0.13-0.14,0.52-0.47,1.69-0.93l0.03-0.01c9.15-3.99,15.33-6.65,18.37-7.91c8.11-3.37,10.34-4.2,11.4-4.22c0.19-0.03,0.47,0.06,0.57,0.14c0.03,0.03,0.06,0.07,0.09,0.25C45.43,21.15,45.48,21.62,45.45,21.94z" /><path d="M32,0.25C14.49,0.25,0.25,14.49,0.25,32S14.49,63.75,32,63.75S63.75,49.51,63.75,32S49.51,0.25,32,0.25z M32,61.75C15.6,61.75,2.25,48.4,2.25,32S15.6,2.25,32,2.25S61.75,15.6,61.75,32S48.4,61.75,32,61.75z" />
	</symbol>
	<symbol id="i-whatsapp" viewBox="0 0 208 208">
		<path d="M104,0C46.6523,0,0,46.6524,0,104c0,19.5624,5.4375,38.5548,15.7459,55.0468   c-4.1052,14.3948-11.5272,41.6172-11.6052,41.9024c-0.3828,1.4064,0.0273,2.91,1.078,3.9256   c1.0508,1.012,2.5704,1.3712,3.9568,0.9496l41.2228-12.6836C66.5467,202.8672,85.0391,208,104,208c57.3475,0,104-46.6524,104-104   S161.3475,0,104,0z M104,200c-18.0745,0-35.6837-5.0508-50.9257-14.6056c-0.6448-0.4024-1.3828-0.6092-2.1252-0.6092   c-0.3944,0-0.7928,0.0584-1.1756,0.1756l-35.9964,11.0784c2.6448-9.6525,7.3949-26.918,10.1524-36.5196   c0.3204-1.1132,0.1408-2.3124-0.488-3.2852C13.34,140.6916,8,122.6288,8,104C8,51.0664,51.0663,8,104,8c52.9335,0,96,43.0664,96,96   S156.9335,200,104,200z"/><path d="M171.9415,128.504c-7.3832-4.1016-13.672-8.2112-18.262-11.2112c-3.504-2.2888-6.0352-3.9412-7.8904-4.8708   c-5.1876-2.59-9.1211-0.758-10.6171,0.75c-0.1877,0.1872-0.3557,0.3904-0.5,0.6092c-5.3869,8.082-12.4261,15.8164-14.4845,16.2304   c-2.3792-0.3708-13.5195-6.7032-24.594-15.9256c-11.3044-9.422-18.414-18.4416-19.4608-24.582C83.3867,82.0392,86,77.3436,86,72   c0-5.508-12.8477-28.504-15.172-30.828c-2.332-2.3284-7.5821-2.6916-15.6133-1.094c-0.7732,0.1564-1.4844,0.5352-2.0427,1.094   c-0.9729,0.9724-23.7149,24.16-12.9065,52.2656c11.8632,30.8436,42.3164,66.6952,81.1408,72.5196   c4.41,0.66,8.5468,0.988,12.4217,0.988c22.84,0,36.3203-11.492,40.1171-34.2888   C174.2227,130.9884,173.4219,129.3244,171.9415,128.504z M122.5935,158.0428c-41.0544-6.156-66.918-46.832-74.8592-67.4804   c-7.8788-20.4804,6.6524-38.738,10.3008-42.8672c2.9689-0.5036,6.09-0.7148,7.3944-0.5116C68.1523,50.9728,77.5859,68.7928,78,72   c0,2.1016-0.6837,5.0236-8.828,13.172C68.4219,85.922,68,86.9376,68,88c0,20.9452,44.1755,50,52,50   c6.8047,0,15.6755-11.4376,20.7263-18.8868c0.2932,0.0116,0.7852,0.1132,1.4844,0.4648c1.4416,0.7228,3.9376,2.3516,7.094,4.414   c4.168,2.7228,9.7033,6.34,16.238,10.086C162.5743,148.3592,154.2811,162.8048,122.5935,158.0428z" />
	</symbol>
</svg>